<svg xmlns="http://www.w3.org/2000/svg" aria-hidden="true" style="position:absolute;width:0;height:0;overflow:hidden"><defs><symbol id="icon-Vector" viewBox="0 0 10 8"><path fill="#f4f4fd" d="M8.446.255a.919.919 0 0 1 1.553.646.923.923 0 0 1-.242.649L4.862 7.704a.924.924 0 0 1-.658.295.908.908 0 0 1-.667-.271L.291 4.465a.933.933 0 0 1-.226-1.023.918.918 0 0 1 .87-.579.932.932 0 0 1 .657.294l2.569 2.581L8.421.281c.008-.009.016-.019.025-.027h-.001z" style="fill:var(--color1, #f4f4fd)"/></symbol></defs></svg>